# xmcd CD database file
#
# Track frame offsets:
#	150
#	15637
#	31657
#	38280
#	51700
#	64927
#	82395
#	100715
#	113465
#	128562
#	142337
#	152732
#	164560
#	179182
#	189837
#	205252
#
# Disc length: 2938 seconds
#
# Revision: 0
# Processed by: cddbd v1.5.2PL0 Copyright (c) Steve Scherf et al.
# Submitted via: CDex 1.51
#
DISCID=dd0b7810
DTITLE=The Tamworth Tapes - Volume 1
DYEAR=1900
DGENRE=Country
TTITLE0=Judy Stone - Down The Mississippi
TTITLE1=Johnny Chester - Willie Why Won't You Sing One With Me
TTITLE2=Norm Bodkin - Fender Bender
TTITLE3=Nev Nicholls - Let's Have Another Beer
TTITLE4=Denis Tucker - Whiskey And Women
TTITLE5=Geraldine Doyle - Stand On Your Man
TTITLE6=Dave Pincombe - Three Empty Bottles
TTITLE7=The Cobbers - Lachlan Tigers
TTITLE8=Smokey Dawson - The Outhouse Down The Back
TTITLE9=Jean Stafford - Hello Love
TTITLE10=Slim Newton - Redback On The Toilet Seat
TTITLE11=Flying Emus - Diamond Creek
TTITLE12=Tex Morton - Frankie And Johnny
TTITLE13=Colin James And Olive Bice - Believe In Yourself 100%
TTITLE14=Terry Gordon - Noel Mc Gregor The Travelling Showman
TTITLE15=Stan Coster - Dorothy , Ballads And Beer
EXTD=
EXTT0=
EXTT1=
EXTT2=
EXTT3=
EXTT4=
EXTT5=
EXTT6=
EXTT7=
EXTT8=
EXTT9=
EXTT10=
EXTT11=
EXTT12=
EXTT13=
EXTT14=
EXTT15=
PLAYORDER=
